<svg width="76" height="76" viewBox="0 0 76 76" fill="none" xmlns="http://www.w3.org/2000/svg">
<g clip-path="url(#clip0_160_13)">
<path fill-rule="evenodd" clip-rule="evenodd" d="M38 37.9999C29.5754 37.9999 22.7278 31.1827 22.7278 22.7999C22.7278 14.4171 29.5754 7.59994 38 7.59994C46.4246 7.59994 53.2721 14.4171 53.2721 22.7999C53.2721 31.1827 46.4246 37.9999 38 37.9999ZM52.3488 40.5572C55.4885 38.0572 57.9099 34.7698 59.3663 31.0299C60.8228 27.2899 61.2623 23.2308 60.6403 19.2657C59.1317 9.29834 50.8022 1.32231 40.7436 0.159512C26.866 -1.44789 15.0936 9.30614 15.0936 22.7999C15.0936 29.9819 18.4375 36.381 23.6511 40.5572C10.8375 45.349 1.48194 56.6009 0.0151429 71.7857C-0.036142 72.3183 0.0242782 72.8559 0.192514 73.3638C0.36075 73.8717 0.633115 74.3388 0.992192 74.7354C1.35127 75.1321 1.78915 75.4491 2.27786 75.6669C2.76656 75.8847 3.29534 75.9982 3.83036 75.9999C4.76818 76.0075 5.67498 75.6647 6.37302 75.0383C7.07106 74.412 7.50999 73.5473 7.60375 72.6142C9.13515 55.6548 22.1806 45.5999 38 45.5999C53.8194 45.5999 66.8647 55.6548 68.3961 72.6142C68.4899 73.5473 68.9288 74.412 69.6269 75.0383C70.3249 75.6647 71.2318 76.0075 72.1696 75.9999C74.4344 75.9999 76.1975 74.0315 75.9809 71.7857C74.5179 56.6009 65.1623 45.349 52.3449 40.5572" fill="#D9D9D9"/>
</g>
<defs>
<clipPath id="clip0_160_13">
<rect width="76" height="76" fill="white"/>
</clipPath>
</defs>
</svg>
